<svg xmlns="http://www.w3.org/2000/svg" viewBox="0 0 512 512">
  <path d="M 236.0 119.0 L 184.6 119.0 C 179.8 119.0 176.0 122.8 176.0 127.6 L 176.0 316.2 C 176.0 320.9 179.8 324.7 184.6 324.7 L 236.0 324.7 C 240.7 324.7 244.6 320.9 244.6 316.2 L 244.6 127.6 C 244.6 122.8 240.7 119.0 236.0 119.0 Z M 327.4 119.0 L 276.0 119.0 C 271.3 119.0 267.4 122.8 267.4 127.6 L 267.4 384.7 C 267.4 389.5 271.3 393.3 276.0 393.3 L 327.4 393.3 C 332.2 393.3 336.0 389.5 336.0 384.7 L 336.0 127.6 C 336.0 122.8 332.2 119.0 327.4 119.0 Z" fill="#23FFFF"/>
</svg>
