<svg xmlns="http://www.w3.org/2000/svg" viewBox="0 0 14.16 24.275" overflow="visible"><path d="M 5.31 0 L 0.758 0 C 0.34 0 0 0.34 0 0.759 L 0 17.449 C 0 17.868 0.34 18.207 0.758 18.207 L 5.31 18.207 C 5.729 18.207 6.069 17.868 6.069 17.449 L 6.069 0.759 C 6.069 0.34 5.729 0 5.31 0 Z M 13.401 0 L 8.85 0 C 8.431 0 8.091 0.34 8.091 0.759 L 8.091 23.516 C 8.091 23.935 8.431 24.275 8.85 24.275 L 13.401 24.275 C 13.821 24.275 14.16 23.935 14.16 23.516 L 14.16 0.759 C 14.16 0.34 13.821 0 13.401 0 Z" fill="rgb(35,255,255)"/></svg>
